<svg width="24" height="25" viewBox="0 0 24 25" fill="none" xmlns="http://www.w3.org/2000/svg">
  <path fill-rule="evenodd" clip-rule="evenodd" d="M17.9999 3.16675C18.8799 3.16675 19.6265 3.72675 19.8932 4.50008L22.6665 11.1668V20.5001C22.6665 21.2365 22.0696 21.8335 21.3332 21.8335H19.9999C19.2635 21.8335 18.6665 21.2365 18.6665 20.5001V19.1668H5.33325V20.5001C5.33325 21.2365 4.7363 21.8335 3.99992 21.8335H2.66659C1.93021 21.8335 1.33325 21.2365 1.33325 20.5001V11.1668L4.10659 4.50008C4.37325 3.72675 5.11992 3.16675 5.99992 3.16675H17.9999ZM5.99992 5.16675L3.99992 9.83341H19.9999L17.9999 5.16675H5.99992ZM17.9999 12.5001C16.8953 12.5001 15.9999 13.3956 15.9999 14.5001C15.9999 15.6047 16.8953 16.5001 17.9999 16.5001C19.1044 16.5001 19.9999 15.6047 19.9999 14.5001C19.9999 13.3956 19.1044 12.5001 17.9999 12.5001ZM3.99992 14.5001C3.99992 13.3956 4.89535 12.5001 5.99992 12.5001C7.10449 12.5001 7.99992 13.3956 7.99992 14.5001C7.99992 15.6047 7.10449 16.5001 5.99992 16.5001C4.89535 16.5001 3.99992 15.6047 3.99992 14.5001Z" fill="black" fill-opacity="0.8"/>
</svg>
