<svg width="24" height="25" viewBox="0 0 24 25" fill="none" xmlns="http://www.w3.org/2000/svg">
  <path d="M12.4053 3.06001C11.4773 3.25201 11.4773 3.25201 3.83997 10.5053C0.725303 13.4707 0.405303 13.8547 0.266636 14.9107C-0.0640305 17.3 2.65597 20.5107 5.4293 20.9907C6.36797 21.1613 7.11464 21.012 8.8533 20.3293C10.2506 19.7747 10.3253 19.7533 11.36 19.7533C12.32 19.7533 12.48 19.7853 12.9706 20.0413C13.28 20.2013 13.7813 20.6173 14.112 21.0013L14.7093 21.6627L14.976 21.4173L15.2426 21.1613L15.744 21.6093C16.1386 21.9613 16.2773 22.0253 16.3946 21.9187C16.5226 21.8227 16.4586 21.7053 16.0426 21.2893C15.5413 20.788 15.5413 20.7667 15.7226 20.564C15.9146 20.3507 15.9253 20.3507 16.4053 20.7667C16.9173 21.2253 17.0133 21.2573 17.1306 21.076C17.1626 21.012 16.992 20.7453 16.736 20.4893C16.32 20.0627 16.288 20.0093 16.4053 19.7533L16.5333 19.476L17.0346 19.9027C17.8453 20.6173 18.1546 20.3933 17.3866 19.6467C16.928 19.1987 16.8746 19.0493 17.12 18.8467C17.248 18.74 17.3653 18.7933 17.76 19.1133C18.0693 19.38 18.304 19.4867 18.4213 19.444C18.5706 19.38 18.5066 19.284 18.08 18.8467C17.5573 18.3133 17.5573 18.3133 17.76 18.1C17.9733 17.8973 17.9733 17.8973 18.4746 18.324C18.944 18.7187 19.2 18.7827 19.2 18.516C19.2 18.4627 18.9973 18.2173 18.752 17.9933C18.3786 17.652 18.3146 17.5347 18.4106 17.3853C18.592 17.0867 18.7413 17.108 19.1893 17.5133C19.6053 17.8867 19.84 17.9293 19.84 17.62C19.84 17.5453 19.6373 17.3107 19.392 17.0973L18.9333 16.724L19.1573 16.4893L19.392 16.2653L19.8293 16.66C20.096 16.9053 20.3306 17.0333 20.4266 16.9907C20.6506 16.9053 20.4906 16.6173 20 16.2013L19.616 15.892L19.8293 15.636L20.0426 15.38L20.448 15.7747C20.672 15.9987 20.9173 16.18 20.9813 16.18C21.2906 16.18 21.216 15.9133 20.7893 15.476C20.3413 15.0173 20.3413 15.0067 20.5333 14.7933L20.736 14.5693L21.12 14.9533C21.504 15.3267 21.8666 15.444 21.8666 15.1987C21.8666 15.124 21.6746 14.868 21.44 14.6333L21.0026 14.196L21.2266 13.9933C21.44 13.8013 21.4506 13.8013 21.792 14.132C22.1546 14.484 22.5066 14.58 22.5066 14.3347C22.5066 14.26 22.336 14.036 22.1333 13.8333C21.7066 13.428 21.7066 13.428 21.92 13.1507C22.08 12.948 22.0906 12.948 22.5066 13.3533C22.8586 13.7053 22.9333 13.7373 22.9973 13.5773C23.04 13.46 22.9546 13.2573 22.7413 12.9907C22.4533 12.628 22.432 12.5533 22.56 12.3827C22.6986 12.1907 22.72 12.1907 23.0613 12.5213C23.264 12.7133 23.4773 12.8733 23.5413 12.8733C23.8186 12.8733 23.776 12.6387 23.4026 12.2333C23.0293 11.8173 23.0186 11.796 23.2 11.5933C23.3813 11.4013 23.3706 11.3693 23.104 10.9107C22.336 9.59868 20.3093 9.53468 17.888 10.7507L17.2266 11.092L17.8453 10.4413C18.592 9.64135 18.7733 9.24668 18.7733 8.34001C18.7733 7.48668 18.4746 6.53735 17.952 5.75868C16.7893 3.99868 14.1546 2.71868 12.4053 3.06001ZM14.656 3.74268C16.6933 4.47868 18.2293 6.32401 18.3253 8.13735C18.3573 8.69201 18.3253 9.00135 18.1973 9.26801C18.048 9.56668 12.7786 14.6973 9.5253 17.716L8.95997 18.2387V17.6413C8.95997 16.8947 8.65064 15.9133 8.2133 15.22C7.53064 14.1533 5.95197 12.9693 4.68264 12.564C4.4693 12.4893 3.91464 12.404 3.46664 12.3613L2.63464 12.2867L7.05064 8.08401C9.7813 5.48135 11.6266 3.80668 11.8933 3.68935C12.5333 3.39068 13.7706 3.41201 14.656 3.74268ZM21.8986 10.4627C22.3786 10.6653 22.8693 11.2093 22.7626 11.412C22.7093 11.4973 20.896 13.684 18.7306 16.276L14.784 20.9693L14.2186 20.436C13.9093 20.148 13.376 19.7747 13.0453 19.6147C12.4906 19.3587 12.2986 19.3267 11.3066 19.3267C10.1973 19.3267 10.1653 19.3373 8.74664 19.9133C7.45597 20.4253 7.21064 20.4893 6.3573 20.532C5.19464 20.5853 4.77864 20.4787 3.7333 19.828C2.5813 19.1133 1.70664 18.1747 1.16264 17.076C0.746636 16.2547 0.70397 16.0947 0.70397 15.348C0.693303 14.6333 0.73597 14.4627 0.99197 14.0253C1.79197 12.6493 3.5093 12.4147 5.4933 13.396C7.33864 14.3133 8.5333 16.0413 8.5333 17.78C8.5333 19.1773 7.23197 20.0947 5.66397 19.8067C3.6373 19.4333 1.73864 17.5133 1.6213 15.7C1.53597 14.3987 2.2293 13.7053 3.59464 13.7053C4.9493 13.7053 6.18664 14.4093 7.00797 15.6147C7.8293 16.852 7.8613 17.94 7.0933 18.6227C6.75197 18.9213 6.6453 18.9533 5.98397 18.9533C5.37597 18.9533 5.15197 18.9 4.58664 18.6013C3.27464 17.9293 2.52797 16.9267 2.5173 15.8387C2.50664 15.348 2.5493 15.188 2.76264 14.964C3.93597 13.716 6.71997 15.2093 6.71997 17.0867C6.71997 17.46 6.65597 17.6413 6.4533 17.8333C5.8773 18.42 4.49064 18.004 3.75464 17.044C3.30664 16.4573 3.30664 15.8387 3.74397 15.5187C3.9893 15.3373 4.07464 15.3267 4.45864 15.4227C5.22664 15.636 5.98397 16.5 5.80264 16.9693C5.61064 17.46 4.3733 17.0013 4.3733 16.436C4.3733 16.18 4.6933 16.276 4.79997 16.564C4.92797 16.8947 5.16264 16.852 5.2053 16.4787C5.2693 15.9773 4.47997 15.6573 4.1173 16.0307C3.8293 16.3187 3.91464 16.7027 4.36264 17.1507C4.87464 17.6733 5.57864 17.7693 6.0053 17.3747C6.31464 17.0973 6.20797 16.2867 5.79197 15.7853C5.1733 15.0067 3.94664 14.6867 3.42397 15.156C2.2613 16.212 3.77597 18.5267 5.6213 18.5267C6.73064 18.5267 7.21064 18.004 7.11464 16.9053C7.05064 16.148 6.69864 15.508 6.01597 14.9107C5.0773 14.0893 3.87197 13.844 2.98664 14.2813C2.3573 14.6013 2.1013 15.0707 2.1013 15.8493C2.1013 16.7027 2.44264 17.428 3.19997 18.1533C4.25597 19.1453 5.5573 19.636 6.5173 19.38C8.31997 18.9 8.5973 16.98 7.14664 15.0493C5.99464 13.5133 3.5093 12.8307 2.1013 13.652C1.3973 14.068 1.13064 14.6653 1.19464 15.6787C1.3013 17.2893 2.50664 18.932 4.20264 19.764C4.9493 20.1267 5.16264 20.18 5.95197 20.2227C7.5413 20.2867 7.16797 20.5533 12.4266 15.5933C14.304 13.8227 15.9893 12.244 16.16 12.1053C16.4586 11.8493 18.0586 11.1133 19.4666 10.5693C20.2133 10.2813 21.3653 10.228 21.8986 10.4627Z" fill="black" fill-opacity="0.8"/>
</svg>
