<svg width="24" height="25" viewBox="0 0 24 25" fill="none" xmlns="http://www.w3.org/2000/svg">
  <rect x="1.6001" y="6.5" width="4" height="10" fill="#9C9C9C" fill-opacity="0.8"/>
  <rect x="1.9001" y="6.8" width="3.4" height="9.4" stroke="black" stroke-opacity="0.8" stroke-width="0.6"/>
  <rect x="0.799805" y="16.5" width="22.4" height="2" fill="black" fill-opacity="0.8"/>
  <rect x="1.0998" y="16.8" width="21.8" height="1.4" stroke="black" stroke-opacity="0.8" stroke-width="0.6"/>
  <rect x="4.3999" y="10.1001" width="18.4" height="2.8" fill="white"/>
  <rect x="4.4999" y="10.2001" width="18.2" height="2.6" stroke="black" stroke-opacity="0.8" stroke-width="0.2"/>
  <rect x="4.9001" y="10.6" width="17.6" height="1.8" fill="white" stroke="#333333" stroke-width="0.6"/>
  <path d="M7.68384 10.7002L6.39998 12.2337" stroke="#333333" stroke-width="0.8" stroke-linecap="round"/>
  <path d="M10.3262 10.7002L9.04232 12.2337" stroke="#333333" stroke-width="0.8" stroke-linecap="round"/>
  <path d="M12.969 10.7002L11.6851 12.2337" stroke="#333333" stroke-width="0.8" stroke-linecap="round"/>
  <path d="M15.6113 10.7002L14.3275 12.2337" stroke="#333333" stroke-width="0.8" stroke-linecap="round"/>
  <path d="M18.2542 10.7002L16.9703 12.2337" stroke="#333333" stroke-width="0.8" stroke-linecap="round"/>
  <rect x="4.3999" y="11.1001" width="1.2" height="0.8" fill="black" fill-opacity="0.8"/>
  <path d="M21.4836 10.7L20.1998 12.2335" stroke="#333333" stroke-width="0.8" stroke-linecap="round"/>
  <circle cx="3.99995" cy="11.5" r="0.8" fill="black" fill-opacity="0.8"/>
  <path d="M22.3999 10.3H22.7999C23.0208 10.3 23.1999 10.4791 23.1999 10.7V12.3C23.1999 12.521 23.0208 12.7 22.7999 12.7H22.3999V10.3Z" fill="black" fill-opacity="0.8"/>
</svg>
