<svg width="24" height="25" viewBox="0 0 24 25" fill="none" xmlns="http://www.w3.org/2000/svg">
  <g clip-path="url(#clip0_10320_90357)">
    <rect y="0.5" width="24" height="24" fill="white"/>
    <path d="M23.1116 0.699951C22.4514 0.699951 1.54852 0.699951 0.888283 0.699951C0.508998 0.699951 0.199951 1.009 0.199951 1.38828C0.199951 2.04852 0.199951 22.9514 0.199951 23.6116C0.199951 23.9909 0.508998 24.2999 0.888283 24.2999C1.54852 24.2999 22.4514 24.2999 23.1116 24.2999C23.4909 24.2999 23.8 23.9909 23.8 23.6116V8.35589V1.38828C23.8 1.009 23.4909 0.699951 23.1116 0.699951ZM1.57662 2.07662H7.15351C7.15351 2.51209 7.15351 15.5202 7.15351 15.9556H1.57662V2.07662ZM15.4556 22.9233H1.57662V17.3464C2.01209 17.3464 15.0202 17.3464 15.4556 17.3464V22.9233ZM15.4556 15.9556H8.54423V9.04423H15.4556V15.9556ZM22.4233 22.9233H16.8464C16.8464 22.4878 16.8464 9.4797 16.8464 9.04423H22.4233V22.9233ZM22.4233 7.65351C21.9878 7.65351 8.9797 7.65351 8.54423 7.65351V2.07662H22.4233V7.65351Z" fill="black" fill-opacity="0.8"/>
  </g>
  <defs>
    <clipPath id="clip0_10320_90357">
      <rect y="0.5" width="24" height="24" rx="1" fill="white"/>
    </clipPath>
  </defs>
</svg>
