<svg width="24" height="25" viewBox="0 0 24 25" fill="none" xmlns="http://www.w3.org/2000/svg">
  <path fill-rule="evenodd" clip-rule="evenodd" d="M1.2937 12.548L21.4135 12.4043L23.1955 13.7408C23.3402 13.8494 23.4254 14.0198 23.4254 14.2007V15.2785V18.0091H20.3842C20.0431 17.1664 19.2169 16.572 18.2519 16.572C17.2869 16.572 16.4608 17.1664 16.1196 18.0091H8.31174C7.97063 17.1664 7.14447 16.572 6.17948 16.572C5.21448 16.572 4.38833 17.1664 4.04722 18.0091H3.5931H1.2937V12.548Z" fill="black" fill-opacity="0.8"/>
  <rect x="0.718506" y="16.8594" width="0.57485" height="1.1497" fill="black" fill-opacity="0.8"/>
  <rect x="23.4253" y="16.8594" width="0.57485" height="1.1497" fill="black" fill-opacity="0.8"/>
  <path d="M2.44336 18.009H3.95122L3.88049 18.5839H2.80264L2.44336 18.009Z" fill="black" fill-opacity="0.8"/>
  <path d="M22.2751 18.009H20.4762L20.5506 18.5839H21.844L22.2751 18.009Z" fill="black" fill-opacity="0.8"/>
  <path d="M1.58084 4.5H14.515L16.2395 9.0988H0L1.58084 4.5Z" fill="black" fill-opacity="0.8"/>
  <path d="M0.402735 8.81138L1.78597 4.78743H14.3158L15.8248 8.81138H0.402735Z" stroke="black" stroke-opacity="0.8" stroke-width="0.57485"/>
  <path d="M2.58678 5.07495H3.8802L2.58678 8.52405H1.14966L2.58678 5.07495Z" fill="white"/>
  <path d="M13.9405 8.52393H15.234L13.9405 5.07482H12.5034L13.9405 8.52393Z" fill="white"/>
  <path d="M5.17322 5.07495H6.61035L5.74807 8.52405H4.16724L5.17322 5.07495Z" fill="white"/>
  <path d="M10.6342 8.52393H12.0713L11.209 5.07482H9.62817L10.6342 8.52393Z" fill="white"/>
  <path d="M7.18579 8.52393H9.05405L8.76663 5.07482H7.47322L7.18579 8.52393Z" fill="white"/>
  <path d="M1.2937 9.09888H1.86855V12.548H1.2937V9.09888Z" fill="black" fill-opacity="0.8"/>
  <path d="M14.2271 9.09888H14.8019V12.548H14.2271V9.09888Z" fill="black" fill-opacity="0.8"/>
  <rect x="15.0901" y="6.22461" width="4.5988" height="1.1497" fill="black" fill-opacity="0.8"/>
  <rect x="19.688" y="6.22461" width="0.287425" height="0.57485" fill="black" fill-opacity="0.8"/>
  <path d="M18.8267 7.37427H19.7397L21.4135 12.532L20.5005 12.8353L18.8267 7.37427Z" fill="black" fill-opacity="0.8"/>
  <circle cx="6.17921" cy="18.8714" r="1.43713" stroke="black" stroke-opacity="0.8" stroke-width="1.1497"/>
  <circle cx="18.2515" cy="18.8714" r="1.43713" stroke="black" stroke-opacity="0.8" stroke-width="1.1497"/>
  <path d="M4.24068 13.0794V15.1228H3.74807V13.0794H4.24068ZM5.03502 13.9299V14.3088H4.10033V13.9299H5.03502ZM5.11502 13.0794V13.4597H4.10033V13.0794H5.11502ZM7.04897 14.0604V14.1432C7.04897 14.2994 7.02698 14.4398 6.983 14.5642C6.93996 14.6877 6.87868 14.7935 6.79915 14.8814C6.71962 14.9684 6.62559 15.0353 6.51706 15.0821C6.40853 15.1279 6.28877 15.1509 6.15778 15.1509C6.02586 15.1509 5.90516 15.1279 5.79569 15.0821C5.68716 15.0353 5.59266 14.9684 5.5122 14.8814C5.43267 14.7935 5.37092 14.6877 5.32694 14.5642C5.2839 14.4398 5.26238 14.2994 5.26238 14.1432V14.0604C5.26238 13.9041 5.2839 13.7638 5.32694 13.6394C5.37092 13.5149 5.4322 13.4092 5.51079 13.3222C5.59032 13.2342 5.68435 13.1673 5.79288 13.1215C5.90235 13.0747 6.02305 13.0513 6.15497 13.0513C6.28596 13.0513 6.40572 13.0747 6.51425 13.1215C6.62372 13.1673 6.71822 13.2342 6.79775 13.3222C6.87728 13.4092 6.93903 13.5149 6.983 13.6394C7.02698 13.7638 7.04897 13.9041 7.04897 14.0604ZM6.54934 14.1432V14.0576C6.54934 13.9565 6.54045 13.8677 6.52267 13.7909C6.50583 13.7133 6.48057 13.6483 6.44689 13.5959C6.41321 13.5435 6.37157 13.5042 6.32198 13.478C6.27333 13.4508 6.21766 13.4373 6.15497 13.4373C6.08948 13.4373 6.03241 13.4508 5.98375 13.478C5.9351 13.5042 5.8944 13.5435 5.86165 13.5959C5.82891 13.6483 5.80411 13.7133 5.78727 13.7909C5.77136 13.8677 5.76341 13.9565 5.76341 14.0576V14.1432C5.76341 14.2433 5.77136 14.3322 5.78727 14.4099C5.80411 14.4866 5.82891 14.5516 5.86165 14.6049C5.89534 14.6583 5.9365 14.6985 5.98516 14.7256C6.03474 14.7528 6.09229 14.7663 6.15778 14.7663C6.22047 14.7663 6.27614 14.7528 6.32479 14.7256C6.37344 14.6985 6.41414 14.6583 6.44689 14.6049C6.48057 14.5516 6.50583 14.4866 6.52267 14.4099C6.54045 14.3322 6.54934 14.2433 6.54934 14.1432ZM9.03343 14.0604V14.1432C9.03343 14.2994 9.01145 14.4398 8.96747 14.5642C8.92443 14.6877 8.86315 14.7935 8.78362 14.8814C8.70409 14.9684 8.61006 15.0353 8.50153 15.0821C8.393 15.1279 8.27324 15.1509 8.14225 15.1509C8.01032 15.1509 7.88963 15.1279 7.78016 15.0821C7.67163 15.0353 7.57713 14.9684 7.49666 14.8814C7.41714 14.7935 7.35538 14.6877 7.31141 14.5642C7.26837 14.4398 7.24685 14.2994 7.24685 14.1432V14.0604C7.24685 13.9041 7.26837 13.7638 7.31141 13.6394C7.35538 13.5149 7.41667 13.4092 7.49526 13.3222C7.57479 13.2342 7.66882 13.1673 7.77735 13.1215C7.88682 13.0747 8.00752 13.0513 8.13944 13.0513C8.27043 13.0513 8.39019 13.0747 8.49872 13.1215C8.60819 13.1673 8.70269 13.2342 8.78222 13.3222C8.86175 13.4092 8.9235 13.5149 8.96747 13.6394C9.01145 13.7638 9.03343 13.9041 9.03343 14.0604ZM8.53381 14.1432V14.0576C8.53381 13.9565 8.52492 13.8677 8.50714 13.7909C8.4903 13.7133 8.46504 13.6483 8.43136 13.5959C8.39767 13.5435 8.35604 13.5042 8.30645 13.478C8.2578 13.4508 8.20213 13.4373 8.13944 13.4373C8.07395 13.4373 8.01687 13.4508 7.96822 13.478C7.91957 13.5042 7.87887 13.5435 7.84612 13.5959C7.81337 13.6483 7.78858 13.7133 7.77174 13.7909C7.75583 13.8677 7.74788 13.9565 7.74788 14.0576V14.1432C7.74788 14.2433 7.75583 14.3322 7.77174 14.4099C7.78858 14.4866 7.81337 14.5516 7.84612 14.6049C7.8798 14.6583 7.92097 14.6985 7.96962 14.7256C8.01921 14.7528 8.07675 14.7663 8.14225 14.7663C8.20494 14.7663 8.2606 14.7528 8.30926 14.7256C8.35791 14.6985 8.39861 14.6583 8.43136 14.6049C8.46504 14.5516 8.4903 14.4866 8.50714 14.4099C8.52492 14.3322 8.53381 14.2433 8.53381 14.1432ZM9.95269 15.1228H9.49938L9.50218 14.7439H9.95269C10.0463 14.7439 10.1253 14.7214 10.1899 14.6765C10.2554 14.6316 10.305 14.5647 10.3386 14.4758C10.3733 14.386 10.3906 14.2756 10.3906 14.1446V14.0562C10.3906 13.9579 10.3807 13.8719 10.3611 13.798C10.3424 13.7231 10.3143 13.6609 10.2769 13.6113C10.2395 13.5608 10.1927 13.5229 10.1365 13.4976C10.0813 13.4724 10.0177 13.4597 9.94567 13.4597H9.49096V13.0794H9.94567C10.0841 13.0794 10.2109 13.1032 10.326 13.151C10.442 13.1977 10.5421 13.2651 10.6263 13.3531C10.7115 13.4401 10.777 13.5435 10.8228 13.6632C10.8696 13.782 10.893 13.914 10.893 14.059V14.1446C10.893 14.2887 10.8696 14.4206 10.8228 14.5404C10.777 14.6601 10.712 14.7635 10.6277 14.8505C10.5435 14.9375 10.4439 15.0049 10.3288 15.0526C10.2147 15.0994 10.0893 15.1228 9.95269 15.1228ZM9.78147 13.0794V15.1228H9.28886V13.0794H9.78147ZM12.0186 13.0794V15.1228H11.5259V13.0794H12.0186ZM12.6333 13.0794V13.4597H10.9253V13.0794H12.6333ZM12.8424 13.0794H13.6466C13.8037 13.0794 13.9403 13.1028 14.0564 13.1496C14.1724 13.1963 14.2617 13.2656 14.3244 13.3573C14.388 13.449 14.4198 13.5622 14.4198 13.6969C14.4198 13.8139 14.4016 13.9116 14.3651 13.9902C14.3286 14.0688 14.2776 14.1338 14.2121 14.1853C14.1476 14.2358 14.0723 14.2775 13.9862 14.3102L13.8248 14.4014H13.1497L13.1469 14.0211H13.6466C13.7092 14.0211 13.7612 14.0099 13.8023 13.9874C13.8435 13.965 13.8744 13.9332 13.895 13.892C13.9165 13.8499 13.9272 13.7998 13.9272 13.7418C13.9272 13.6829 13.9165 13.6323 13.895 13.5902C13.8734 13.5481 13.8416 13.5159 13.7995 13.4934C13.7584 13.471 13.7074 13.4597 13.6466 13.4597H13.335V15.1228H12.8424V13.0794ZM13.9609 15.1228L13.509 14.219L14.0311 14.2162L14.4886 15.1018V15.1228H13.9609ZM15.8261 13.0794H16.3187V14.4141C16.3187 14.5731 16.2855 14.7079 16.2191 14.8183C16.1526 14.9277 16.0595 15.0105 15.9398 15.0667C15.82 15.1228 15.6792 15.1509 15.5173 15.1509C15.3573 15.1509 15.2165 15.1228 15.0949 15.0667C14.9742 15.0105 14.8797 14.9277 14.8114 14.8183C14.744 14.7079 14.7104 14.5731 14.7104 14.4141V13.0794H15.2044V14.4141C15.2044 14.4983 15.2165 14.567 15.2409 14.6204C15.2652 14.6728 15.3007 14.7111 15.3475 14.7355C15.3943 14.7598 15.4509 14.7719 15.5173 14.7719C15.5847 14.7719 15.6413 14.7598 15.6872 14.7355C15.733 14.7111 15.7676 14.6728 15.791 14.6204C15.8144 14.567 15.8261 14.4983 15.8261 14.4141V13.0794ZM17.7909 14.4309H18.2821C18.2756 14.5731 18.2372 14.6985 18.167 14.807C18.0969 14.9156 17.9996 15.0002 17.8751 15.0611C17.7516 15.1209 17.6057 15.1509 17.4373 15.1509C17.3007 15.1509 17.1786 15.1279 17.071 15.0821C16.9643 15.0363 16.8735 14.9703 16.7987 14.8842C16.7248 14.7981 16.6682 14.6938 16.6289 14.5712C16.5905 14.4487 16.5713 14.3107 16.5713 14.1572V14.0464C16.5713 13.8929 16.5914 13.7549 16.6317 13.6323C16.6728 13.5088 16.7309 13.4041 16.8057 13.318C16.8815 13.231 16.9722 13.1645 17.078 13.1187C17.1837 13.0728 17.3011 13.0499 17.4302 13.0499C17.608 13.0499 17.7582 13.0817 17.8807 13.1454C18.0033 13.209 18.0983 13.2965 18.1656 13.4078C18.233 13.5182 18.2728 13.644 18.2849 13.7853H17.7937C17.7919 13.7086 17.7788 13.6445 17.7544 13.593C17.7301 13.5407 17.6917 13.5014 17.6393 13.4752C17.587 13.449 17.5172 13.4359 17.4302 13.4359C17.3694 13.4359 17.3166 13.4471 17.2716 13.4695C17.2267 13.492 17.1893 13.5276 17.1594 13.5762C17.1294 13.6249 17.107 13.688 17.092 13.7657C17.078 13.8424 17.071 13.935 17.071 14.0436V14.1572C17.071 14.2658 17.0775 14.3584 17.0906 14.4351C17.1037 14.5118 17.1248 14.5745 17.1538 14.6232C17.1828 14.6718 17.2202 14.7079 17.266 14.7312C17.3128 14.7537 17.3699 14.7649 17.4373 14.7649C17.5121 14.7649 17.5753 14.7532 17.6267 14.7298C17.6782 14.7055 17.7179 14.669 17.746 14.6204C17.7741 14.5708 17.789 14.5076 17.7909 14.4309ZM19.0077 13.0794V15.1228H18.5151V13.0794H19.0077ZM20.2273 13.0794L19.4358 14.1151L18.9726 14.6218L18.8828 14.1699L19.1789 13.7208L19.6196 13.0794H20.2273ZM19.6449 15.1228L19.1172 14.2021L19.5003 13.9201L20.2273 15.1228H19.6449Z" fill="white"/>
  <rect x="1.80005" y="9.1001" width="12.4" height="3.4" fill="white"/>
  <path d="M14.8 9.1001H19.4L20.4 12.5001H14.8V9.1001Z" fill="white"/>
  <path d="M15.6001 7.3999H18.8001L19.4001 9.0999H16.2001L15.6001 7.3999Z" fill="white"/>
</svg>
