<svg width="24" height="25" viewBox="0 0 24 25" fill="none" xmlns="http://www.w3.org/2000/svg">
  <path d="M1.04435 10.8H22.9555C23.0194 10.8 23.0999 10.8586 23.0999 10.9667V14.9667C23.0999 15.0749 23.0194 15.1334 22.9555 15.1334H1.04435C0.980414 15.1334 0.899902 15.0749 0.899902 14.9667V10.9667C0.899902 10.8586 0.980414 10.8 1.04435 10.8Z" stroke="black" stroke-opacity="0.8"/>
  <path d="M0.399902 16.3H2.3999L1.06657 20.3H0.399902V16.3Z" fill="black" fill-opacity="0.8"/>
  <path d="M23.6001 16.3H21.6001L22.9334 20.3H23.6001V16.3Z" fill="black" fill-opacity="0.8"/>
  <path d="M0.399902 4.9668H1.23037C1.52802 4.9668 1.78961 5.16412 1.87138 5.45032L3.06657 9.63346H0.399902V4.9668Z" fill="black" fill-opacity="0.8"/>
  <path d="M23.6001 4.90015H22.7696C22.472 4.90015 22.2104 5.09746 22.1286 5.38367L20.9334 9.56681H23.6001V4.90015Z" fill="black" fill-opacity="0.8"/>
  <path d="M3.24104 5.4668H20.7592C20.7978 5.4668 20.8359 5.48426 20.8657 5.52542C20.896 5.5672 20.9095 5.62394 20.8929 5.68425L19.946 9.13346H4.05409L3.10729 5.68424C3.09074 5.62393 3.10423 5.5672 3.13451 5.52542C3.16434 5.48426 3.20244 5.4668 3.24104 5.4668Z" stroke="black" stroke-opacity="0.8"/>
</svg>
