<svg width="24" height="25" viewBox="0 0 24 25" fill="none" xmlns="http://www.w3.org/2000/svg">
  <rect x="1" y="5" width="4" height="2" rx="1" fill="black" fill-opacity="0.8"/>
  <circle cx="15" cy="21.5" r="2.5" stroke="black" stroke-opacity="0.8"/>
  <mask id="path-3-inside-1_10320_90310" fill="white">
    <path fill-rule="evenodd" clip-rule="evenodd" d="M18.3335 5.16675H3.3335L5.86927 20.3814C6.13716 21.9887 7.52779 23.1667 9.15725 23.1667H11.7333C11.4777 22.6667 11.3335 22.1002 11.3335 21.5001C11.3335 19.475 12.9752 17.8334 15.0002 17.8334C15.6829 17.8334 16.3219 18.02 16.8693 18.3449L18.3335 5.16675Z"/>
  </mask>
  <path d="M3.3335 5.16675V4.16675H2.15304L2.3471 5.33115L3.3335 5.16675ZM18.3335 5.16675L19.3274 5.27718L19.4508 4.16675H18.3335V5.16675ZM5.86927 20.3814L6.85567 20.217L5.86927 20.3814ZM11.7333 23.1667V24.1667H13.3676L12.6237 22.7116L11.7333 23.1667ZM16.8693 18.3449L16.3588 19.2048L17.6919 19.9962L17.8631 18.4553L16.8693 18.3449ZM3.3335 6.16675H18.3335V4.16675H3.3335V6.16675ZM6.85567 20.217L4.31989 5.00235L2.3471 5.33115L4.88288 20.5458L6.85567 20.217ZM9.15725 22.1667C8.01663 22.1667 7.04318 21.3421 6.85567 20.217L4.88288 20.5458C5.23113 22.6353 7.03895 24.1667 9.15725 24.1667V22.1667ZM11.7333 22.1667H9.15725V24.1667H11.7333V22.1667ZM12.6237 22.7116C12.4385 22.3492 12.3335 21.9383 12.3335 21.5001H10.3335C10.3335 22.2621 10.517 22.9842 10.8429 23.6219L12.6237 22.7116ZM12.3335 21.5001C12.3335 20.0273 13.5274 18.8334 15.0002 18.8334V16.8334C12.4229 16.8334 10.3335 18.9227 10.3335 21.5001H12.3335ZM15.0002 18.8334C15.4983 18.8334 15.9617 18.969 16.3588 19.2048L17.3797 17.485C16.6822 17.0709 15.8674 16.8334 15.0002 16.8334V18.8334ZM17.3396 5.05632L15.8754 18.2344L17.8631 18.4553L19.3274 5.27718L17.3396 5.05632Z" fill="black" fill-opacity="0.8" mask="url(#path-3-inside-1_10320_90310)"/>
  <path d="M20.304 4.20649L16.3633 6.79371" stroke="black" stroke-opacity="0.8" stroke-width="2" stroke-linecap="round" stroke-linejoin="round"/>
  <path d="M3.88663 3C4.12455 1.89894 5.13188 1.09054 6.30478 1.14919L14.7354 1.57072C15.6126 1.61458 16.3712 2.18255 16.6655 3H3.88663Z" stroke="black" stroke-opacity="0.8"/>
</svg>
