<svg width="24" height="25" viewBox="0 0 24 25" fill="none" xmlns="http://www.w3.org/2000/svg">
  <rect x="0.5" y="1" width="23" height="23" rx="0.833333" stroke="black" stroke-opacity="0.8"/>
  <rect x="2.3999" y="5.1001" width="19.1529" height="2.61176" fill="white"/>
  <rect x="2.8999" y="5.6001" width="18.1529" height="1.61176" stroke="black" stroke-opacity="0.8"/>
  <path d="M2.3999 9.45288H21.5528V11.1941C21.5528 16.0022 17.6551 19.8999 12.847 19.8999H11.1058C6.29766 19.8999 2.3999 16.0022 2.3999 11.1941V9.45288Z" fill="white"/>
  <path d="M2.8999 9.95288H21.0528V11.1941C21.0528 15.726 17.3789 19.3999 12.847 19.3999H11.1058C6.5738 19.3999 2.8999 15.726 2.8999 11.1941V9.95288Z" stroke="black" stroke-opacity="0.8"/>
  <circle cx="11.9765" cy="14.6764" r="3.48235" fill="black" fill-opacity="0.8"/>
  <circle cx="11.9765" cy="14.6764" r="3.04706" stroke="black" stroke-opacity="0.8" stroke-width="0.870588"/>
  <path d="M12.1941 14.6766C12.1941 14.7968 12.0966 14.8943 11.9764 14.8943C11.8562 14.8943 11.7588 14.7968 11.7588 14.6766C11.7588 14.5564 11.8562 14.459 11.9764 14.459C12.0966 14.459 12.1941 14.5564 12.1941 14.6766Z" fill="white"/>
  <path d="M14.5361 13.2324C14.5361 13.7132 14.1463 14.103 13.6655 14.103C13.1847 14.103 12.7949 13.7132 12.7949 13.2324C12.7949 12.7516 13.1847 12.3618 13.6655 12.3618C14.1463 12.3618 14.5361 12.7516 14.5361 13.2324Z" fill="white"/>
</svg>
