<svg width="24" height="25" viewBox="0 0 24 25" fill="none" xmlns="http://www.w3.org/2000/svg">
  <mask id="path-1-inside-1_10320_90126" fill="white">
    <path fill-rule="evenodd" clip-rule="evenodd" d="M17.948 5.22026C17.7611 5.0682 17.5226 4.97705 17.2628 4.97705H7.04676C6.98399 4.97705 6.92247 4.98237 6.86262 4.99259C6.58117 4.97489 6.29309 5.06608 6.067 5.26974L0.89889 9.92496C0.628417 10.1686 0.508781 10.5172 0.546117 10.8534C0.532838 10.9213 0.525879 10.9914 0.525879 11.0632V19.5403C0.525879 20.1406 1.01246 20.6271 1.61269 20.6271H2.91687C3.5171 20.6271 4.00368 20.1406 4.00368 19.5403V11.809L7.72732 8.45485L16.3467 8.45485L20.0701 11.8087V19.5403C20.0701 20.1406 20.5566 20.6271 21.1569 20.6271H22.461C23.0613 20.6271 23.5479 20.1406 23.5479 19.5403V11.0632C23.5479 10.9917 23.5409 10.9218 23.5278 10.8542C23.5654 10.5178 23.4458 10.1688 23.1751 9.92496L18.007 5.26974C17.9878 5.25243 17.9681 5.23594 17.948 5.22026Z"/>
  </mask>
  <path d="M17.948 5.22026L17.3171 5.99608L17.3246 6.00218L17.3322 6.00814L17.948 5.22026ZM6.86262 4.99259L6.79989 5.99062L6.91608 5.99792L7.03085 5.97833L6.86262 4.99259ZM6.067 5.26974L5.39772 4.52672V4.52672L6.067 5.26974ZM0.89889 9.92496L0.229613 9.18195L0.229613 9.18195L0.89889 9.92496ZM0.546117 10.8534L1.52752 11.0453L1.5569 10.8951L1.54001 10.743L0.546117 10.8534ZM4.00368 11.809L3.3344 11.0659L3.00368 11.3639V11.809H4.00368ZM7.72732 8.45485V7.45485H7.34335L7.05805 7.71184L7.72732 8.45485ZM16.3467 8.45485L17.0159 7.71184L16.7306 7.45485H16.3467V8.45485ZM20.0701 11.8087H21.0701V11.3636L20.7393 11.0657L20.0701 11.8087ZM23.5278 10.8542L22.534 10.743L22.517 10.8952L22.5462 11.0454L23.5278 10.8542ZM23.1751 9.92496L23.8444 9.18195L23.8444 9.18195L23.1751 9.92496ZM18.007 5.26974L18.6763 4.52672L18.6762 4.52671L18.007 5.26974ZM17.2628 5.97705C17.275 5.97705 17.2845 5.97907 17.2924 5.98193C17.3007 5.98495 17.3091 5.98961 17.3171 5.99608L18.579 4.44444C18.2202 4.15267 17.7607 3.97705 17.2628 3.97705V5.97705ZM7.04676 5.97705H17.2628V3.97705H7.04676V5.97705ZM7.03085 5.97833C7.03536 5.97756 7.0406 5.97705 7.04676 5.97705V3.97705C6.92738 3.97705 6.80959 3.98718 6.6944 4.00684L7.03085 5.97833ZM6.73627 6.01275C6.74667 6.00338 6.75647 5.99815 6.76586 5.99496C6.77596 5.99153 6.7876 5.98984 6.79989 5.99062L6.92535 3.99455C6.38659 3.96069 5.83169 4.13582 5.39772 4.52672L6.73627 6.01275ZM1.56817 10.668L6.73627 6.01275L5.39772 4.52672L0.229613 9.18195L1.56817 10.668ZM1.54001 10.743C1.53841 10.7286 1.54029 10.7141 1.54496 10.7014C1.5492 10.69 1.55605 10.6789 1.56817 10.668L0.229613 9.18195C-0.290303 9.65027 -0.519137 10.3212 -0.447771 10.9638L1.54001 10.743ZM1.52588 11.0632C1.52588 11.0562 1.52654 11.0503 1.52752 11.0453L-0.435285 10.6614C-0.460869 10.7922 -0.474121 10.9266 -0.474121 11.0632H1.52588ZM1.52588 19.5403V11.0632H-0.474121V19.5403H1.52588ZM1.61269 19.6271C1.56475 19.6271 1.52588 19.5883 1.52588 19.5403H-0.474121C-0.474121 20.6928 0.460179 21.6271 1.61269 21.6271V19.6271ZM2.91687 19.6271H1.61269V21.6271H2.91687V19.6271ZM3.00368 19.5403C3.00368 19.5883 2.96481 19.6271 2.91687 19.6271V21.6271C4.06938 21.6271 5.00368 20.6928 5.00368 19.5403H3.00368ZM3.00368 11.809V19.5403H5.00368V11.809H3.00368ZM7.05805 7.71184L3.3344 11.0659L4.67296 12.552L8.3966 9.19787L7.05805 7.71184ZM16.3467 7.45485L7.72732 7.45485V9.45485L16.3467 9.45485V7.45485ZM20.7393 11.0657L17.0159 7.71184L15.6774 9.19787L19.4008 12.5518L20.7393 11.0657ZM21.0701 19.5403V11.8087H19.0701V19.5403H21.0701ZM21.1569 19.6271C21.1089 19.6271 21.0701 19.5883 21.0701 19.5403H19.0701C19.0701 20.6928 20.0043 21.6271 21.1569 21.6271V19.6271ZM22.461 19.6271H21.1569V21.6271H22.461V19.6271ZM22.5479 19.5403C22.5479 19.5883 22.509 19.6271 22.461 19.6271V21.6271C23.6136 21.6271 24.5479 20.6928 24.5479 19.5403H22.5479ZM22.5479 11.0632V19.5403H24.5479V11.0632H22.5479ZM22.5462 11.0454C22.5472 11.0504 22.5479 11.0562 22.5479 11.0632H24.5479C24.5479 10.9272 24.5347 10.7933 24.5093 10.6629L22.5462 11.0454ZM22.5058 10.668C22.5179 10.6789 22.5248 10.69 22.529 10.7014C22.5337 10.7141 22.5356 10.7286 22.534 10.743L24.5216 10.9653C24.5935 10.3223 24.3647 9.65064 23.8444 9.18195L22.5058 10.668ZM17.3377 6.01275L22.5058 10.668L23.8444 9.18195L18.6763 4.52672L17.3377 6.01275ZM17.3322 6.00814C17.334 6.00949 17.3358 6.01103 17.3377 6.01276L18.6762 4.52671C18.6397 4.49384 18.6023 4.46239 18.5639 4.43238L17.3322 6.00814Z" fill="black" fill-opacity="0.8" mask="url(#path-1-inside-1_10320_90126)"/>
  <path d="M5.68267 15.4874V18.8999H4.86001V15.4874H5.68267ZM7.00923 16.9077V17.5405H5.44829V16.9077H7.00923ZM7.14282 15.4874V16.1226H5.44829V15.4874H7.14282ZM8.35923 15.4874V18.8999H7.53892V15.4874H8.35923ZM11.7881 15.4874V18.8999H10.9678L9.76079 16.7765V18.8999H8.93813V15.4874H9.76079L10.9678 17.6108V15.4874H11.7881ZM13.1827 15.4874V18.8999H12.3624V15.4874H13.1827ZM15.5194 17.9929C15.5194 17.9397 15.5116 17.8921 15.4959 17.8499C15.4803 17.8062 15.4514 17.7655 15.4092 17.728C15.367 17.6905 15.3061 17.653 15.2264 17.6155C15.1483 17.5765 15.0452 17.5358 14.917 17.4937C14.767 17.4437 14.6225 17.3874 14.4834 17.3249C14.3444 17.2608 14.2202 17.1866 14.1108 17.1022C14.0014 17.0163 13.9147 16.9163 13.8506 16.8022C13.7866 16.6866 13.7545 16.5522 13.7545 16.3991C13.7545 16.2522 13.7874 16.1202 13.853 16.003C13.9186 15.8843 14.01 15.7835 14.1272 15.7007C14.2459 15.6163 14.385 15.5522 14.5444 15.5085C14.7038 15.4632 14.878 15.4405 15.067 15.4405C15.317 15.4405 15.5374 15.4843 15.728 15.5718C15.9202 15.6577 16.0702 15.7804 16.178 15.9397C16.2874 16.0976 16.342 16.2843 16.342 16.4999H15.5241C15.5241 16.414 15.5061 16.3382 15.4702 16.2726C15.4358 16.2069 15.3834 16.1554 15.3131 16.1179C15.2428 16.0804 15.1545 16.0616 15.0483 16.0616C14.9452 16.0616 14.8584 16.0772 14.7881 16.1085C14.7178 16.1397 14.6647 16.1819 14.6288 16.2351C14.5928 16.2866 14.5749 16.3437 14.5749 16.4062C14.5749 16.4577 14.5889 16.5046 14.617 16.5468C14.6467 16.5874 14.6881 16.6257 14.7413 16.6616C14.7959 16.6976 14.8616 16.7319 14.9381 16.7647C15.0163 16.7976 15.1038 16.8296 15.2006 16.8608C15.3819 16.9187 15.5428 16.9835 15.6834 17.0554C15.8256 17.1257 15.9452 17.2062 16.042 17.2968C16.1405 17.3858 16.2147 17.4874 16.2647 17.6015C16.3163 17.7155 16.342 17.8444 16.342 17.9882C16.342 18.1413 16.3124 18.2772 16.253 18.396C16.1936 18.5147 16.1084 18.6155 15.9975 18.6983C15.8866 18.7796 15.7538 18.8413 15.5991 18.8835C15.4444 18.9257 15.2717 18.9468 15.0811 18.9468C14.9061 18.9468 14.7334 18.9249 14.5631 18.8812C14.3944 18.8358 14.2413 18.7671 14.1038 18.6749C13.9663 18.5812 13.8561 18.4616 13.7733 18.3163C13.692 18.1694 13.6514 17.9952 13.6514 17.7937H14.4764C14.4764 17.8937 14.4897 17.978 14.5163 18.0468C14.5428 18.1155 14.5819 18.171 14.6334 18.2132C14.685 18.2538 14.7483 18.2835 14.8233 18.3022C14.8983 18.3194 14.9842 18.328 15.0811 18.328C15.1858 18.328 15.2702 18.3132 15.3342 18.2835C15.3983 18.2522 15.4452 18.2116 15.4749 18.1616C15.5045 18.1101 15.5194 18.0538 15.5194 17.9929ZM19.0655 16.8421V17.4749H17.3147V16.8421H19.0655ZM17.5889 15.4874V18.8999H16.7663V15.4874H17.5889ZM19.6186 15.4874V18.8999H18.7983V15.4874H19.6186Z" fill="black"/>
</svg>
