<svg width="24" height="25" viewBox="0 0 24 25" fill="none" xmlns="http://www.w3.org/2000/svg">
  <path d="M3 6.5C1.89 6.5 1 7.39 1 8.5V15.5H3C3 16.2956 3.31607 17.0587 3.87868 17.6213C4.44129 18.1839 5.20435 18.5 6 18.5C6.79565 18.5 7.55871 18.1839 8.12132 17.6213C8.68393 17.0587 9 16.2956 9 15.5H15C15 16.2956 15.3161 17.0587 15.8787 17.6213C16.4413 18.1839 17.2044 18.5 18 18.5C18.7956 18.5 19.5587 18.1839 20.1213 17.6213C20.6839 17.0587 21 16.2956 21 15.5H23V8.5C23 7.39 22.11 6.5 21 6.5H3ZM2.5 8H6.5V10.5H2.5V8ZM8 8H12V10.5H8V8ZM13.5 8H17.5V10.5H13.5V8ZM19 8H21.5V13.5L19 11.5V8ZM6 14C6.39782 14 6.77936 14.158 7.06066 14.4393C7.34196 14.7206 7.5 15.1022 7.5 15.5C7.5 15.8978 7.34196 16.2794 7.06066 16.5607C6.77936 16.842 6.39782 17 6 17C5.60218 17 5.22064 16.842 4.93934 16.5607C4.65804 16.2794 4.5 15.8978 4.5 15.5C4.5 15.1022 4.65804 14.7206 4.93934 14.4393C5.22064 14.158 5.60218 14 6 14ZM18 14C18.3978 14 18.7794 14.158 19.0607 14.4393C19.342 14.7206 19.5 15.1022 19.5 15.5C19.5 15.8978 19.342 16.2794 19.0607 16.5607C18.7794 16.842 18.3978 17 18 17C17.6022 17 17.2206 16.842 16.9393 16.5607C16.658 16.2794 16.5 15.8978 16.5 15.5C16.5 15.1022 16.658 14.7206 16.9393 14.4393C17.2206 14.158 17.6022 14 18 14Z" fill="black" fill-opacity="0.8"/>
</svg>
