<svg width="16" height="16" viewBox="0 0 16 16" fill="none" xmlns="http://www.w3.org/2000/svg">
  <rect x="0.5" y="0.5" width="15" height="15" rx="7.5" stroke="grey"/>
  <path d="M10.875 7.5H8.5V5.125C8.5 5.05625 8.44375 5 8.375 5H7.625C7.55625 5 7.5 5.05625 7.5 5.125V7.5H5.125C5.05625 7.5 5 7.55625 5 7.625V8.375C5 8.44375 5.05625 8.5 5.125 8.5H7.5V10.875C7.5 10.9437 7.55625 11 7.625 11H8.375C8.44375 11 8.5 10.9437 8.5 10.875V8.5H10.875C10.9437 8.5 11 8.44375 11 8.375V7.625C11 7.55625 10.9437 7.5 10.875 7.5Z" fill="grey"/>
</svg>
