<svg width="20" height="20" viewBox="0 0 20 20" fill="none" xmlns="http://www.w3.org/2000/svg">
  <path d="M17.5 1.25C17.8315 1.25 18.1495 1.3817 18.3839 1.61612C18.6183 1.85054 18.75 2.16848 18.75 2.5V12.5C18.75 12.8315 18.6183 13.1495 18.3839 13.3839C18.1495 13.6183 17.8315 13.75 17.5 13.75H14.375C13.9869 13.75 13.6041 13.8404 13.257 14.0139C12.9098 14.1875 12.6079 14.4395 12.375 14.75L10 17.9163L7.625 14.75C7.39213 14.4395 7.09017 14.1875 6.74303 14.0139C6.3959 13.8404 6.01311 13.75 5.625 13.75H2.5C2.16848 13.75 1.85054 13.6183 1.61612 13.3839C1.3817 13.1495 1.25 12.8315 1.25 12.5V2.5C1.25 2.16848 1.3817 1.85054 1.61612 1.61612C1.85054 1.3817 2.16848 1.25 2.5 1.25H17.5ZM2.5 0C1.83696 0 1.20107 0.263392 0.732233 0.732233C0.263392 1.20107 0 1.83696 0 2.5L0 12.5C0 13.163 0.263392 13.7989 0.732233 14.2678C1.20107 14.7366 1.83696 15 2.5 15H5.625C5.81906 15 6.01045 15.0452 6.18402 15.132C6.35759 15.2188 6.50857 15.3448 6.625 15.5L9 18.6663C9.11643 18.8215 9.26741 18.9475 9.44098 19.0343C9.61455 19.1211 9.80594 19.1663 10 19.1663C10.1941 19.1663 10.3854 19.1211 10.559 19.0343C10.7326 18.9475 10.8836 18.8215 11 18.6663L13.375 15.5C13.4914 15.3448 13.6424 15.2188 13.816 15.132C13.9896 15.0452 14.1809 15 14.375 15H17.5C18.163 15 18.7989 14.7366 19.2678 14.2678C19.7366 13.7989 20 13.163 20 12.5V2.5C20 1.83696 19.7366 1.20107 19.2678 0.732233C18.7989 0.263392 18.163 0 17.5 0L2.5 0Z" fill="black"/>
  <path d="M3.75 4.375C3.75 4.20924 3.81585 4.05027 3.93306 3.93306C4.05027 3.81585 4.20924 3.75 4.375 3.75H15.625C15.7908 3.75 15.9497 3.81585 16.0669 3.93306C16.1842 4.05027 16.25 4.20924 16.25 4.375C16.25 4.54076 16.1842 4.69973 16.0669 4.81694C15.9497 4.93415 15.7908 5 15.625 5H4.375C4.20924 5 4.05027 4.93415 3.93306 4.81694C3.81585 4.69973 3.75 4.54076 3.75 4.375ZM3.75 7.5C3.75 7.33424 3.81585 7.17527 3.93306 7.05806C4.05027 6.94085 4.20924 6.875 4.375 6.875H15.625C15.7908 6.875 15.9497 6.94085 16.0669 7.05806C16.1842 7.17527 16.25 7.33424 16.25 7.5C16.25 7.66576 16.1842 7.82473 16.0669 7.94194C15.9497 8.05915 15.7908 8.125 15.625 8.125H4.375C4.20924 8.125 4.05027 8.05915 3.93306 7.94194C3.81585 7.82473 3.75 7.66576 3.75 7.5ZM3.75 10.625C3.75 10.4592 3.81585 10.3003 3.93306 10.1831C4.05027 10.0658 4.20924 10 4.375 10H10.625C10.7908 10 10.9497 10.0658 11.0669 10.1831C11.1842 10.3003 11.25 10.4592 11.25 10.625C11.25 10.7908 11.1842 10.9497 11.0669 11.0669C10.9497 11.1842 10.7908 11.25 10.625 11.25H4.375C4.20924 11.25 4.05027 11.1842 3.93306 11.0669C3.81585 10.9497 3.75 10.7908 3.75 10.625Z" fill="black"/>
</svg>

