<svg width="20" height="20" viewBox="0 0 20 20" fill="none" xmlns="http://www.w3.org/2000/svg">
  <path d="M16.667 6.66699H11.9903L12.9262 3.86116C13.0945 3.35449 13.0095 2.79283 12.697 2.35949C12.3845 1.92616 11.8778 1.66699 11.3437 1.66699H10.0003C9.75283 1.66699 9.51866 1.77699 9.35949 1.96699L5.44283 6.66699H3.33366C2.41449 6.66699 1.66699 7.41449 1.66699 8.33366V15.8337C1.66699 16.7528 2.41449 17.5003 3.33366 17.5003H14.4228C14.7619 17.4992 15.0926 17.3952 15.3713 17.2021C15.65 17.0089 15.8636 16.7357 15.9837 16.4187L18.2812 10.2928C18.316 10.1993 18.3338 10.1002 18.3337 10.0003V8.33366C18.3337 7.41449 17.5862 6.66699 16.667 6.66699ZM3.33366 8.33366H5.00033V15.8337H3.33366V8.33366ZM16.667 9.84949L14.4228 15.8337H6.66699V7.80199L10.3903 3.33366H11.3453L10.0437 7.23616C10.0014 7.36142 9.98962 7.49495 10.0093 7.62568C10.0289 7.75641 10.0795 7.88057 10.1567 7.98786C10.2339 8.09515 10.3356 8.18249 10.4534 8.24263C10.5711 8.30276 10.7015 8.33397 10.8337 8.33366H16.667V9.84949Z" fill="black"/>
</svg>


