<?xml version="1.0" encoding="UTF-8"?>
<!DOCTYPE svg PUBLIC "-//W3C//DTD SVG 1.1//EN" "http://www.w3.org/Graphics/SVG/1.1/DTD/svg11.dtd">
<!-- Creator: CorelDRAW 2019 (64-Bit) -->
<svg xmlns="http://www.w3.org/2000/svg" xml:space="preserve" width="162.56mm" height="91.44mm" version="1.1" style="shape-rendering:geometricPrecision; text-rendering:geometricPrecision; image-rendering:optimizeQuality; fill-rule:evenodd; clip-rule:evenodd"
viewBox="5200 2500 5600 4100"
 xmlns:xlink="http://www.w3.org/1999/xlink"
 xmlns:xodm="http://www.corel.com/coreldraw/odm/2003">
 <defs>
  <style type="text/css">
   <![CDATA[
    .fil12 {fill:#01052C;fill-opacity:0.149020}
    .fil3 {fill:#001F1A;fill-opacity:0.200000}
    .fil1 {fill:#005B01;fill-opacity:0.200000}
    .fil9 {fill:#01052C;fill-opacity:0.200000}
    .fil6 {fill:#021A8C;fill-opacity:0.200000}
    .fil11 {fill:#4A1877;fill-opacity:0.200000}
    .fil7 {fill:#B6FFFF;fill-opacity:0.200000}
    .fil13 {fill:#5DF9F6;fill-opacity:0.301961}
    .fil5 {fill:#B6FFFF;fill-opacity:0.501961}
    .fil2 {fill:url(#id0)}
    .fil8 {fill:url(#id1)}
    .fil0 {fill:url(#id2)}
    .fil4 {fill:url(#id3)}
    .fil10 {fill:url(#id4)}
   ]]>
  </style>
  <linearGradient id="id0" gradientUnits="userSpaceOnUse" x1="7569.72" y1="2799.62" x2="8976.71" y2="5977.05">
   <stop offset="0" style="stop-opacity:1; stop-color:#0276DB"/>
   <stop offset="0.490196" style="stop-opacity:1; stop-color:#0F989E"/>
   <stop offset="1" style="stop-opacity:1; stop-color:#1DBB60"/>
  </linearGradient>
  <linearGradient id="id1" gradientUnits="userSpaceOnUse" x1="8663.75" y1="6031.16" x2="7115.1" y2="6157.58">
   <stop offset="0" style="stop-opacity:1; stop-color:#0130B8"/>
   <stop offset="0.490196" style="stop-opacity:1; stop-color:#2F24B1"/>
   <stop offset="1" style="stop-opacity:1; stop-color:#5D17A9"/>
  </linearGradient>
  <linearGradient id="id2" gradientUnits="userSpaceOnUse" x1="7201.43" y1="2533.66" x2="10695.09" y2="6327.55">
   <stop offset="0" style="stop-opacity:1; stop-color:#009C41"/>
   <stop offset="1" style="stop-opacity:1; stop-color:#FEF062"/>
  </linearGradient>
  <linearGradient id="id3" gradientUnits="userSpaceOnUse" x1="5785.42" y1="1930.37" x2="9009.84" y2="6900.81">
   <stop offset="0" style="stop-opacity:1; stop-color:#114EED"/>
   <stop offset="1" style="stop-opacity:1; stop-color:#2CDAFF"/>
  </linearGradient>
  <linearGradient id="id4" gradientUnits="userSpaceOnUse" x1="9290.45" y1="3877.49" x2="5750.76" y2="6519.54">
   <stop offset="0" style="stop-opacity:1; stop-color:#0462EE"/>
   <stop offset="0.490196" style="stop-opacity:1; stop-color:#654CF2"/>
   <stop offset="1" style="stop-opacity:1; stop-color:#C735F7"/>
  </linearGradient>
 </defs>
 <g id="Слой_x0020_1">
  <metadata id="CorelCorpID_0Corel-Layer"/>
 </g>
 <g id="__x0023_Layer_x0020_1">
  <metadata id="CorelCorpID_1Corel-Layer"/>
  <g id="_2215624764160">
   <g>
    <g>
     <path class="fil0" d="M9485.17 3996.65l-318.96 -182.18c-626.43,-357.78 -1018.92,-134.56 -740,444.78 247.38,513.85 220.8,993.71 430.78,1235.03l620.94 -354.66c442.81,-252.94 453.28,-888.2 7.24,-1142.97z"/>
     <path class="fil1" d="M8976.32 4449.38c-208.13,-389.72 -58.24,-698.97 396.58,-516.83l0 -0.02 -206.69 -118.06c-626.43,-357.78 -1018.92,-134.56 -740,444.78 247.38,513.85 220.8,993.71 430.78,1235.03l225.96 -129.05c170.37,-277.41 18.31,-681.84 -106.63,-915.85z"/>
     <path class="fil2" d="M8498.18 4278.8c-302.95,-567.37 143.98,-763.64 668.03,-464.33l-926.79 -529.34c-654.78,-373.99 -1068.14,131.41 -701.58,722.91 291.59,470.52 999.06,1106.29 1018.7,1657.84l300.45 -171.6c57.9,-289.76 -88.12,-708.54 -358.81,-1215.48z"/>
     <path class="fil3" d="M8048.01 4049.57c-227.28,-438.86 -102.98,-843.22 426.85,-629.96l-235.44 -134.48c-654.78,-373.99 -1068.14,131.41 -701.58,722.91 291.59,470.52 999.06,1106.29 1018.7,1657.84l150.23 -85.8c52.04,-616.63 -457.58,-1142.09 -658.76,-1530.51z"/>
     <path class="fil4" d="M8538.39 5521.6c-106.9,-491.84 -679.03,-1064.72 -958.62,-1515.88 -366.57,-591.5 65.71,-1059.83 659.65,-720.59l-757.37 -432.59c-456.72,-260.85 -1041.21,-1.71 -1040.93,530.56 0.27,987.37 1429.91,1252.15 1846.12,2221 158.4,368.78 -10.82,782.91 -416.08,788.85 472.93,23.94 764.5,-423.79 667.23,-871.35z"/>
     <path class="fil5" d="M8556.34 5661.83l-218.23 118.6c48.17,313.07 -125.69,607.51 -466.95,612.52 423.35,21.45 701.3,-335.1 685.18,-731.12z"/>
     <path class="fil6" d="M8335.8 5375.02c-234.12,-452.93 -776.48,-934.43 -1251.39,-1496.28 -396.62,-469.2 -238.77,-1193.06 434.99,-1004.86l-37.35 -21.34c-456.72,-260.85 -1041.21,-1.71 -1040.93,530.56 0.27,987.37 1429.91,1252.15 1846.12,2221 158.4,368.78 -10.82,782.91 -416.08,788.85 551.21,3.04 689.2,-583.54 464.64,-1017.93z"/>
     <path class="fil7" d="M8538.39 5521.6c-106.9,-491.84 -679.03,-1064.72 -958.62,-1515.88 -366.57,-591.5 65.71,-1059.83 659.65,-720.59l-152.02 -86.83c-308.41,-126.49 -683.19,-14.91 -687.47,383.25 -1.7,158.11 59.25,314.24 141.74,447.33 68.1,109.89 145.23,215.47 222.93,318.89 85.1,113.27 172.3,224.95 257.41,338.23 176.88,235.49 418.97,553.27 481.98,843.17 77.57,255.89 -37.41,876.64 -632.83,863.78 472.93,23.94 764.5,-423.79 667.23,-871.35z"/>
     <path class="fil7" d="M8369.77 5908.13c9.11,-330.72 -181.63,-618.32 -415.35,-855.75 -424.61,-431.37 -1134.25,-768.79 -1407.39,-1233.51 338.42,657.97 1392.63,976.12 1740.21,1785.23 147.64,343.77 10.55,726.75 -336.97,781.98 285.87,-40.4 413.58,-263.06 419.5,-477.95z"/>
     <path class="fil7" d="M7950.27 6386.08c-12.6,1.77 -25.07,3.72 -38.29,4.77 13.06,-1.11 25.79,-2.79 38.29,-4.77z"/>
     <path class="fil8" d="M8339.51 5789.83l-383.54 176.39 -450.91 300.24c99.37,79.49 233.35,128.45 366.1,126.49 336.35,-4.86 511.86,-291.94 468.35,-603.12z"/>
     <path class="fil9" d="M8339.51 5789.83l-132.44 75.66c73.6,537.7 -486.69,540.2 -702.01,400.97 99.37,79.49 233.35,128.45 366.1,126.49 336.35,-4.86 511.86,-291.94 468.35,-603.12z"/>
     <path class="fil10" d="M7505.06 6266.46l834.45 -476.63c-8.63,-61.77 -25.94,-124.36 -52.27,-185.73 -274.15,-638.19 -988.01,-970.86 -1443.46,-1405.8 317.6,422.83 -94.75,739.92 -279.28,1100.76 -71.52,139.87 -121.29,289.88 -123.08,464.58 9.4,225.46 132.82,424.01 330.91,538.08 207.58,119.5 456.14,122.71 664.78,3.54l67.95 -38.8z"/>
     <path class="fil11" d="M7505.06 6266.46c-500.1,145.93 -727.91,-300.06 -527.71,-665.03 144.05,-262.58 383.92,-601.62 403.3,-971.32 -190.61,-142.97 -379.21,-281.26 -536.87,-431.81 317.6,422.83 -94.75,739.92 -279.28,1100.76 -71.52,139.87 -121.29,289.88 -123.08,464.58 9.4,225.46 132.82,424.01 330.91,538.08 207.58,119.5 456.14,122.71 664.78,3.54l67.95 -38.8z"/>
     <path class="fil9" d="M8287.24 5604.1c-274.15,-638.19 -988.01,-970.86 -1443.46,-1405.8 103.55,137.85 129.47,264.45 111.03,384.99 534.44,411.21 1178.08,740.28 1252.26,1282.2l132.44 -75.66c-8.63,-61.77 -25.94,-124.36 -52.27,-185.73z"/>
     <path class="fil12" d="M8287.24 5604.1c-213.38,-496.7 -693.12,-808.36 -1110.06,-1127.18 -186.2,765.65 -7.61,1442.9 327.88,1789.54l834.45 -476.63c-8.63,-61.77 -25.94,-124.36 -52.27,-185.73z"/>
     <path class="fil3" d="M7773.6 4018.1c-252.47,-460.68 -186.1,-927.79 465.82,-732.97 -593.94,-339.24 -1026.22,129.09 -659.65,720.59 279.59,451.16 851.72,1024.04 958.62,1515.88 10.49,48.27 16.45,96.59 18.15,144.28l52.88 -30.21c15.57,-522.81 -546.95,-1090.46 -835.82,-1617.57z"/>
     <path class="fil13" d="M8498.18 4278.8c-302.95,-567.37 143.98,-763.64 668.03,-464.33l-174.44 -99.63c-109.37,-49.24 -214.88,-72.36 -307.52,-71.07 -285.03,3.96 -448.08,239.1 -225.59,655.72 135.06,252.98 444.33,775.41 398.33,1194.79 57.9,-289.76 -88.12,-708.54 -358.81,-1215.48z"/>
     <path class="fil1" d="M8646.24 4231.53c-116.47,-377.95 114.49,-554.5 519.97,-417.06 -524.05,-299.31 -970.98,-103.04 -668.03,464.33 270.69,506.94 416.71,925.72 358.81,1215.48l81.73 -46.67c84.2,-481.34 -195.69,-901.98 -292.48,-1216.08z"/>
    </g>
   </g>
  </g>
 </g>
</svg>
