<svg width="20" height="20" viewBox="0 0 20 20" fill="none" xmlns="http://www.w3.org/2000/svg">
  <path d="M16.192 10.817C16.2254 10.5503 16.2504 10.2837 16.2504 10.0003C16.2504 9.71699 16.2254 9.45033 16.192 9.18366L17.9504 7.80866C18.1087 7.68366 18.1504 7.45866 18.0504 7.27533L16.3837 4.39199C16.2837 4.20866 16.0587 4.14199 15.8754 4.20866L13.8004 5.04199C13.367 4.70866 12.9004 4.43366 12.392 4.22533L12.0754 2.01699C12.0504 1.81699 11.8754 1.66699 11.667 1.66699H8.33369C8.12535 1.66699 7.95035 1.81699 7.92535 2.01699L7.60869 4.22533C7.10035 4.43366 6.63369 4.71699 6.20035 5.04199L4.12535 4.20866C3.93369 4.13366 3.71702 4.20866 3.61702 4.39199L1.95035 7.27533C1.84202 7.45866 1.89202 7.68366 2.05035 7.80866L3.80869 9.18366C3.77535 9.45033 3.75035 9.72533 3.75035 10.0003C3.75035 10.2753 3.77535 10.5503 3.80869 10.817L2.05035 12.192C1.89202 12.317 1.85035 12.542 1.95035 12.7253L3.61702 15.6087C3.71702 15.792 3.94202 15.8587 4.12535 15.792L6.20035 14.9587C6.63369 15.292 7.10035 15.567 7.60869 15.7753L7.92535 17.9837C7.95035 18.1837 8.12535 18.3337 8.33369 18.3337H11.667C11.8754 18.3337 12.0504 18.1837 12.0754 17.9837L12.392 15.7753C12.9004 15.567 13.367 15.2837 13.8004 14.9587L15.8754 15.792C16.067 15.867 16.2837 15.792 16.3837 15.6087L18.0504 12.7253C18.1504 12.542 18.1087 12.317 17.9504 12.192L16.192 10.817ZM10.0004 12.917C8.39202 12.917 7.08369 11.6087 7.08369 10.0003C7.08369 8.39199 8.39202 7.08366 10.0004 7.08366C11.6087 7.08366 12.917 8.39199 12.917 10.0003C12.917 11.6087 11.6087 12.917 10.0004 12.917Z" fill="black"/>
</svg>
