<svg width="20" height="20" viewBox="0 0 20 20" fill="none" xmlns="http://www.w3.org/2000/svg">
  <path d="M9.07408 0.633C9.39408 -0.211 10.6051 -0.211 10.9261 0.633L12.9961 6.367C13.0683 6.55379 13.1955 6.71428 13.3608 6.8273C13.5261 6.94031 13.7218 7.00053 13.9221 7H19.0091C19.9491 7 20.3591 8.17 19.6201 8.743L16.0001 12C15.8379 12.1247 15.7194 12.2975 15.6616 12.4937C15.6037 12.6898 15.6095 12.8993 15.6781 13.092L17.0001 18.695C17.3221 19.595 16.2801 20.368 15.4921 19.814L10.5751 16.694C10.4067 16.5757 10.2059 16.5122 10.0001 16.5122C9.79426 16.5122 9.59346 16.5757 9.42508 16.694L4.50808 19.814C3.72108 20.368 2.67808 19.594 3.00008 18.695L4.32208 13.092C4.39066 12.8993 4.39643 12.6898 4.33859 12.4937C4.28074 12.2975 4.16223 12.1247 4.00008 12L0.380077 8.743C-0.359923 8.17 0.0520765 7 0.990077 7H6.07708C6.27737 7.00067 6.47314 6.9405 6.63849 6.82747C6.80385 6.71444 6.93098 6.55387 7.00308 6.367L9.07308 0.633H9.07408Z" fill="#30D2BE"/>
</svg>
