<svg width="20" height="20" viewBox="0 0 20 20" fill="none" xmlns="http://www.w3.org/2000/svg">
  <path d="M2.79199 9.6877V6.72103C2.79199 6.50001 2.87979 6.28805 3.03607 6.13177C3.19235 5.97549 3.40431 5.8877 3.62533 5.8877H17.292C17.513 5.8877 17.725 5.97549 17.8812 6.13177C18.0375 6.28805 18.1253 6.50001 18.1253 6.72103V16.3044C18.1253 16.5254 18.0375 16.7373 17.8812 16.8936C17.725 17.0499 17.513 17.1377 17.292 17.1377H3.62533C3.40431 17.1377 3.19235 17.0499 3.03607 16.8936C2.87979 16.7373 2.79199 16.5254 2.79199 16.3044V13.3335" stroke="black" stroke-linecap="round" stroke-linejoin="round"/>
  <path d="M2.29167 9.6875H7.08333C7.30435 9.6875 7.51631 9.7753 7.67259 9.93158C7.82887 10.0879 7.91667 10.2998 7.91667 10.5208V12.5C7.91667 12.721 7.82887 12.933 7.67259 13.0893C7.51631 13.2455 7.30435 13.3333 7.08333 13.3333H2.29167C2.18116 13.3333 2.07518 13.2894 1.99704 13.2113C1.9189 13.1332 1.875 13.0272 1.875 12.9167V10.1042C1.875 9.99366 1.9189 9.88768 1.99704 9.80954C2.07518 9.7314 2.18116 9.6875 2.29167 9.6875Z" stroke="black" stroke-linecap="round" stroke-linejoin="round"/>
  <path d="M6.03743 12.3454C6.49767 12.3454 6.87077 11.9723 6.87077 11.512C6.87077 11.0518 6.49767 10.6787 6.03743 10.6787C5.5772 10.6787 5.2041 11.0518 5.2041 11.512C5.2041 11.9723 5.5772 12.3454 6.03743 12.3454Z" stroke="black" stroke-linecap="round" stroke-linejoin="round"/>
  <path d="M15.8829 5.8873L5.49538 2.8623L4.61621 5.8873" stroke="black" stroke-linecap="round" stroke-linejoin="round"/>
</svg>


